<?xml version="1.0" encoding="UTF-8" standalone="no"?>
<!-- Created with Inkscape (http://www.inkscape.org/) -->

<svg
   xmlns:dc="http://purl.org/dc/elements/1.1/"
   xmlns:cc="http://creativecommons.org/ns#"
   xmlns:rdf="http://www.w3.org/1999/02/22-rdf-syntax-ns#"
   xmlns:svg="http://www.w3.org/2000/svg"
   xmlns="http://www.w3.org/2000/svg"
   xmlns:sodipodi="http://sodipodi.sourceforge.net/DTD/sodipodi-0.dtd"
   xmlns:inkscape="http://www.inkscape.org/namespaces/inkscape"
   width="210mm"
   height="297mm"
   id="svg3040"
   version="1.1"
   inkscape:version="0.48.4 r9939"
   sodipodi:docname="python-cheat-sheet2.svg">
  <defs
     id="defs3042">
    <inkscape:path-effect
       effect="spiro"
       id="path-effect5186"
       is_visible="true" />
    <inkscape:path-effect
       effect="spiro"
       id="path-effect5182"
       is_visible="true" />
    <marker
       inkscape:stockid="Arrow1Lend"
       orient="auto"
       refY="0.0"
       refX="0.0"
       id="Arrow1Lend"
       style="overflow:visible;">
      <path
         id="path3852"
         d="M 0.0,0.0 L 5.0,-5.0 L -12.5,0.0 L 5.0,5.0 L 0.0,0.0 z "
         style="fill-rule:evenodd;stroke:#000000;stroke-width:1.0pt;"
         transform="scale(0.8) rotate(180) translate(12.5,0)" />
    </marker>
    <filter
       inkscape:collect="always"
       id="filter5192">
      <feGaussianBlur
         inkscape:collect="always"
         stdDeviation="2.5573534"
         id="feGaussianBlur5194" />
    </filter>
  </defs>
  <sodipodi:namedview
     id="base"
     pagecolor="#ffffff"
     bordercolor="#666666"
     borderopacity="1.0"
     inkscape:pageopacity="0.0"
     inkscape:pageshadow="2"
     inkscape:zoom="1"
     inkscape:cx="303.60931"
     inkscape:cy="830.37114"
     inkscape:document-units="px"
     inkscape:current-layer="layer1"
     showgrid="false"
     inkscape:window-width="1366"
     inkscape:window-height="716"
     inkscape:window-x="-4"
     inkscape:window-y="-4"
     inkscape:window-maximized="1" />
  <metadata
     id="metadata3045">
    <rdf:RDF>
      <cc:Work
         rdf:about="">
        <dc:format>image/svg+xml</dc:format>
        <dc:type
           rdf:resource="http://purl.org/dc/dcmitype/StillImage" />
        <dc:title></dc:title>
      </cc:Work>
    </rdf:RDF>
  </metadata>
  <g
     inkscape:label="Ebene 1"
     inkscape:groupmode="layer"
     id="layer1">
    <text
       xml:space="preserve"
       style="font-size:16px;font-style:normal;font-weight:normal;line-height:125%;letter-spacing:0px;word-spacing:0px;fill:#000000;fill-opacity:1;stroke:none;font-family:Sans"
       x="58.57143"
       y="83.790756"
       id="text3056"
       sodipodi:linespacing="125%"><tspan
         sodipodi:role="line"
         id="tspan3058"
         x="58.57143"
         y="83.790756"
         style="font-size:20px">Variablen sind wie Kisten:</tspan></text>
    <text
       xml:space="preserve"
       style="font-size:16px;font-style:normal;font-weight:normal;line-height:125%;letter-spacing:0px;word-spacing:0px;fill:#000000;fill-opacity:1;stroke:none;font-family:Sans"
       x="84.285721"
       y="193.79076"
       id="text3060"
       sodipodi:linespacing="125%"><tspan
         sodipodi:role="line"
         id="tspan3062"
         x="84.285721"
         y="193.79076"
         style="font-size:20px">a = <tspan
   style="fill:#015a01"
   id="tspan3073">&quot;hallo&quot; </tspan></tspan></text>
    <path
       style="fill:#816647;fill-opacity:1;fill-rule:nonzero;stroke:#010101;stroke-width:6;stroke-linecap:round;stroke-linejoin:round;stroke-miterlimit:4;stroke-opacity:1;stroke-dasharray:none;stroke-dashoffset:0"
       d="m 204.06725,150.9375 0,77.125 85.71875,0 0,-77.125 -12.875,0 0,40 -58.5625,0 0,-40 -14.28125,0 z"
       id="rect3064"
       inkscape:connector-curvature="0" />
    <text
       xml:space="preserve"
       style="font-size:20px;font-style:normal;font-weight:normal;line-height:125%;letter-spacing:0px;word-spacing:0px;fill:#000000;fill-opacity:1;stroke:none;font-family:Sans"
       x="241.42857"
       y="213.79076"
       id="text3069"
       sodipodi:linespacing="125%"><tspan
         sodipodi:role="line"
         id="tspan3071"
         x="241.42857"
         y="213.79076"
         style="font-weight:bold">a</tspan></text>
    <path
       style="fill:none;stroke:#000000;stroke-width:2;stroke-linecap:butt;stroke-linejoin:miter;stroke-miterlimit:4;stroke-opacity:1;stroke-dasharray:none;marker-end:url(#Arrow1Lend)"
       d="m 148.57143,166.6479 c 47.39441,-76.662227 93.89252,-13.23511 95.71428,-11.42857"
       id="path3075"
       inkscape:connector-curvature="0"
       sodipodi:nodetypes="cc" />
    <text
       sodipodi:linespacing="125%"
       id="text4289"
       y="-76.160408"
       x="230.73373"
       style="font-size:16px;font-style:normal;font-weight:normal;line-height:125%;letter-spacing:0px;word-spacing:0px;fill:#000000;fill-opacity:1;stroke:none;font-family:Sans"
       xml:space="preserve"
       transform="matrix(0.70074197,0.71341481,-0.71341481,0.70074197,0,0)"
       inkscape:transform-center-x="33.534237"
       inkscape:transform-center-y="-35.65561"><tspan
         style="font-size:20px"
         y="-76.160408"
         x="230.73373"
         id="tspan4291"
         sodipodi:role="line"><tspan
           id="tspan4293"
           style="fill:#015a01">&quot;hallo&quot; </tspan></tspan></text>
    <rect
       style="fill:none;stroke:#010101;stroke-width:2;stroke-linecap:round;stroke-linejoin:round;stroke-miterlimit:4;stroke-opacity:1;stroke-dasharray:none;stroke-dashoffset:0"
       id="rect4297"
       width="305"
       height="154"
       x="47"
       y="93.362183" />
    <path
       inkscape:connector-curvature="0"
       id="path4305"
       d="m 245.06725,279.9375 0,77.125 85.71875,0 0,-77.125 -12.875,0 0,40 -58.5625,0 0,-40 -14.28125,0 z"
       style="fill:#816647;fill-opacity:1;fill-rule:nonzero;stroke:#010101;stroke-width:6;stroke-linecap:round;stroke-linejoin:round;stroke-miterlimit:4;stroke-opacity:1;stroke-dasharray:none;stroke-dashoffset:0" />
    <text
       sodipodi:linespacing="125%"
       id="text4307"
       y="342.79077"
       x="282.42859"
       style="font-size:20px;font-style:normal;font-weight:normal;line-height:125%;letter-spacing:0px;word-spacing:0px;fill:#000000;fill-opacity:1;stroke:none;font-family:Sans"
       xml:space="preserve"><tspan
         style="font-weight:bold"
         y="342.79077"
         x="282.42859"
         id="tspan4309"
         sodipodi:role="line">a</tspan></text>
    <rect
       y="235.36218"
       x="58"
       height="154"
       width="305"
       id="rect4319"
       style="fill:none;stroke:#010101;stroke-width:2;stroke-linecap:round;stroke-linejoin:round;stroke-miterlimit:4;stroke-opacity:1;stroke-dasharray:none;stroke-dashoffset:0" />
    <text
       sodipodi:linespacing="125%"
       id="text4299"
       y="310.79077"
       x="259.28571"
       style="font-size:16px;font-style:normal;font-weight:normal;line-height:125%;letter-spacing:0px;word-spacing:0px;fill:#000000;fill-opacity:1;stroke:none;font-family:Sans"
       xml:space="preserve"><tspan
         style="font-size:20px"
         y="310.79077"
         x="259.28571"
         id="tspan4301"
         sodipodi:role="line"><tspan
           id="tspan4303"
           style="fill:#015a01">&quot;hallo&quot; </tspan></tspan></text>
    <text
       xml:space="preserve"
       style="font-size:20px;font-style:normal;font-weight:normal;line-height:125%;letter-spacing:0px;word-spacing:0px;fill:#000000;fill-opacity:1;stroke:none;font-family:Sans"
       x="543"
       y="74.362183"
       id="text4321"
       sodipodi:linespacing="125%"><tspan
         sodipodi:role="line"
         x="543"
         y="74.362183"
         id="tspan4327" /></text>
    <text
       xml:space="preserve"
       style="font-size:20px;font-style:normal;font-weight:normal;line-height:125%;letter-spacing:0px;word-spacing:0px;fill:#000000;fill-opacity:1;stroke:none;font-family:Sans"
       x="393"
       y="66.362183"
       id="text4333"
       sodipodi:linespacing="125%"><tspan
         sodipodi:role="line"
         id="tspan4335"
         x="393"
         y="66.362183">Das ist wahr (<tspan
   style="fill:#6600cc"
   id="tspan4646">True</tspan>): </tspan><tspan
         sodipodi:role="line"
         x="393"
         y="91.362183"
         id="tspan4339">     3 == 6 / 2    <tspan
   style="fill:#565248"
   id="tspan5080"># gleich</tspan></tspan><tspan
         sodipodi:role="line"
         x="393"
         y="116.36218"
         id="tspan4345">     8 * 2 != 8     <tspan
   style="fill:#565248"
   id="tspan5078"># ungleich</tspan></tspan><tspan
         sodipodi:role="line"
         x="393"
         y="141.36218"
         id="tspan4355">     1 == 3 / 2    <tspan
   style="fill:#565248"
   id="tspan5082"># ganzzahl int</tspan></tspan><tspan
         sodipodi:role="line"
         x="393"
         y="166.36218"
         id="tspan4357">     1.5 == 3.0 / 2 <tspan
   style="fill:#565248"
   id="tspan5084"># mit komma float</tspan></tspan><tspan
         sodipodi:role="line"
         x="393"
         y="191.36218"
         id="tspan4337" /></text>
    <text
       xml:space="preserve"
       style="font-size:20px;font-style:normal;font-weight:normal;line-height:125%;letter-spacing:0px;word-spacing:0px;fill:#000000;fill-opacity:1;stroke:none;font-family:Sans"
       x="56"
       y="543.36218"
       id="text4359"
       sodipodi:linespacing="125%"><tspan
         sodipodi:role="line"
         id="tspan4361"
         x="56"
         y="543.36218">a = 1</tspan><tspan
         sodipodi:role="line"
         x="56"
         y="568.36218"
         id="tspan4363"><tspan
   style="fill:#f44800"
   id="tspan4597">if</tspan> a == 1:</tspan><tspan
         sodipodi:role="line"
         x="56"
         y="593.36218"
         id="tspan4365">    ...</tspan><tspan
         sodipodi:role="line"
         x="56"
         y="618.36218"
         id="tspan4555"><tspan
   style="fill:#f44800"
   id="tspan4599">elif</tspan> a != 2:</tspan><tspan
         sodipodi:role="line"
         x="56"
         y="643.36218"
         id="tspan4557"
         style="fill:#565248">    # wenn a != 1 und a != 2</tspan><tspan
         sodipodi:role="line"
         x="56"
         y="668.36218"
         id="tspan4367"><tspan
   style="fill:#fd3301"
   id="tspan4601">else</tspan>:</tspan><tspan
         sodipodi:role="line"
         x="56"
         y="693.36218"
         id="tspan4369"
         style="fill:#565248">    # sonst</tspan></text>
    <g
       id="g4732">
      <text
         sodipodi:linespacing="125%"
         id="text4559"
         y="470.9325"
         x="219.18848"
         style="font-size:20px;font-style:normal;font-weight:normal;line-height:125%;letter-spacing:0px;word-spacing:0px;fill:#000000;fill-opacity:1;stroke:none;font-family:Sans"
         xml:space="preserve"><tspan
           y="470.9325"
           x="219.18848"
           id="tspan4561"
           sodipodi:role="line">zahl = 1</tspan><tspan
           id="tspan4563"
           y="495.9325"
           x="219.18848"
           sodipodi:role="line"><tspan
   id="tspan4593"
   style="fill:#f44800">while</tspan> zahl &lt; 5:</tspan><tspan
           id="tspan4565"
           y="520.9325"
           x="219.18848"
           sodipodi:role="line"><tspan
   id="tspan4595"
   style="fill:#f44800">    print</tspan> zahl</tspan><tspan
           id="tspan4567"
           y="545.9325"
           x="219.18848"
           sodipodi:role="line">    zahl = zahl + 1</tspan></text>
      <text
         sodipodi:linespacing="125%"
         id="text4569"
         y="471.04968"
         x="432.26563"
         style="font-size:20px;font-style:normal;font-weight:normal;line-height:125%;letter-spacing:0px;word-spacing:0px;fill:#000000;fill-opacity:1;stroke:none;font-family:Sans"
         xml:space="preserve"><tspan
           y="471.04968"
           x="432.26563"
           id="tspan4571"
           sodipodi:role="line">1</tspan><tspan
           id="tspan4575"
           y="496.04968"
           x="432.26563"
           sodipodi:role="line">2</tspan><tspan
           id="tspan4577"
           y="521.04968"
           x="432.26563"
           sodipodi:role="line">3</tspan><tspan
           id="tspan4579"
           y="546.04968"
           x="432.26563"
           sodipodi:role="line">4</tspan><tspan
           id="tspan4581"
           y="571.04968"
           x="432.26563"
           sodipodi:role="line" /><tspan
           id="tspan4573"
           y="596.04968"
           x="432.26563"
           sodipodi:role="line" /></text>
      <rect
         y="416.36218"
         x="189"
         height="154"
         width="479"
         id="rect4583"
         style="fill:none;stroke:#010101;stroke-width:2;stroke-linecap:round;stroke-linejoin:round;stroke-miterlimit:4;stroke-opacity:1;stroke-dasharray:none;stroke-dashoffset:0" />
      <text
         sodipodi:linespacing="125%"
         id="text4585"
         y="436.36218"
         x="221"
         style="font-size:20px;font-style:normal;font-weight:normal;line-height:125%;letter-spacing:0px;word-spacing:0px;fill:#000000;fill-opacity:1;stroke:none;font-family:Sans"
         xml:space="preserve"><tspan
           y="436.36218"
           x="221"
           id="tspan4587"
           sodipodi:role="line">Code</tspan></text>
      <text
         sodipodi:linespacing="125%"
         id="text4589"
         y="436.11804"
         x="402"
         style="font-size:20px;font-style:normal;font-weight:normal;line-height:125%;letter-spacing:0px;word-spacing:0px;fill:#000000;fill-opacity:1;stroke:none;font-family:Sans"
         xml:space="preserve"><tspan
           y="436.11804"
           x="402"
           id="tspan4591"
           sodipodi:role="line">Ausgabe</tspan></text>
      <text
         sodipodi:linespacing="125%"
         id="text4695"
         y="470.36218"
         x="497"
         style="font-size:20px;font-style:normal;font-weight:normal;line-height:125%;letter-spacing:0px;word-spacing:0px;fill:#000000;fill-opacity:1;stroke:none;font-family:Sans"
         xml:space="preserve"><tspan
           y="470.36218"
           x="497"
           id="tspan4697"
           sodipodi:role="line"><tspan
   id="tspan4703"
   style="fill:#fd3301">for</tspan> i in <tspan
   id="tspan4705"
   style="fill:#6600cc">range</tspan>(1, 5):</tspan><tspan
           id="tspan4699"
           y="495.36218"
           x="497"
           sodipodi:role="line"><tspan
   id="tspan4701"
   style="fill:#fd3301">    print</tspan> i</tspan></text>
      <text
         xml:space="preserve"
         style="font-size:20px;font-style:normal;font-weight:normal;line-height:125%;letter-spacing:0px;word-spacing:0px;fill:#000000;fill-opacity:1;stroke:none;font-family:Sans"
         x="531"
         y="436.36218"
         id="text4709"
         sodipodi:linespacing="125%"><tspan
           sodipodi:role="line"
           id="tspan4711"
           x="531"
           y="436.36218">Code</tspan></text>
    </g>
    <g
       id="g4790"
       transform="translate(-60,-400)">
      <path
         inkscape:connector-curvature="0"
         id="path4761"
         d="m 476,602.375 c -7.1797,0 -13,5.8203 -13,13 0,5.78809 3.77185,10.69117 9,12.375 l 0,10.8125 -15.90625,4.9375 1.125,5.8125 L 472,644.75 l 0,10.875 -14.15625,23.84375 6,3.59375 11.65625,-19.65625 11.65625,19.65625 6,-3.59375 L 479,655.625 l 0,-12.5 16.78125,5.1875 1.125,-5.8125 L 479,636.96875 479,628 c 5.73404,-1.35386 10,-6.47738 10,-12.625 0,-7.1797 -5.8203,-13 -13,-13 z"
         style="fill:none;stroke:#010101;stroke-width:2;stroke-linecap:round;stroke-linejoin:round;stroke-miterlimit:4;stroke-opacity:1;stroke-dasharray:none;stroke-dashoffset:0" />
      <text
         sodipodi:linespacing="125%"
         id="text4776"
         y="620.36218"
         x="516"
         style="font-size:20px;font-style:normal;font-weight:normal;line-height:125%;letter-spacing:0px;word-spacing:0px;fill:#000000;fill-opacity:1;stroke:none;font-family:Sans"
         xml:space="preserve"><tspan
           id="tspan4780"
           y="620.36218"
           x="516"
           sodipodi:role="line">Benutzereingabe:</tspan><tspan
           id="tspan4782"
           y="645.36218"
           x="516"
           sodipodi:role="line">antwort = <tspan
   id="tspan4786"
   style="fill:#6600cc">raw_input</tspan>(<tspan
   id="tspan4788"
   style="fill:#015a01">'Frage'</tspan>)</tspan></text>
    </g>
    <text
       xml:space="preserve"
       style="font-size:20px;font-style:normal;font-weight:normal;line-height:125%;letter-spacing:0px;word-spacing:0px;fill:#000000;fill-opacity:1;stroke:none;font-family:Sans"
       x="70"
       y="294.36218"
       id="text4798"
       sodipodi:linespacing="125%"><tspan
         sodipodi:role="line"
         id="tspan4800"
         x="70"
         y="294.36218">(mit <tspan
   style="fill:#f44800"
   id="tspan4830">print</tspan> kann</tspan><tspan
         sodipodi:role="line"
         x="70"
         y="319.36218"
         id="tspan4804"> man den Inhalt </tspan><tspan
         sodipodi:role="line"
         x="70"
         y="344.36218"
         id="tspan4808">         ausgeben)</tspan><tspan
         sodipodi:role="line"
         x="70"
         y="369.36218"
         id="tspan4832" /></text>
    <g
       id="g5132"
       transform="translate(30,0)">
      <g
         id="g4715">
        <text
           xml:space="preserve"
           style="font-size:20px;font-style:normal;font-weight:normal;line-height:125%;letter-spacing:0px;word-spacing:0px;fill:#000000;fill-opacity:1;stroke:none;font-family:Sans"
           x="107"
           y="782.99695"
           id="text4648"
           sodipodi:linespacing="125%"><tspan
             sodipodi:role="line"
             id="tspan4650"
             x="107"
             y="782.99695"><tspan
   style="fill:#fd3301"
   id="tspan4664">for</tspan> name in [<tspan
   style="fill:#015a01"
   id="tspan4658">'franz'</tspan>, <tspan
   style="fill:#015a01"
   id="tspan4660">'ludwig'</tspan>, <tspan
   style="fill:#015a01"
   id="tspan4662">'herb3rt'</tspan>]:</tspan><tspan
             sodipodi:role="line"
             x="107"
             y="807.99695"
             id="tspan4652"><tspan
   style="fill:#fd3301"
   id="tspan4666">    print</tspan> name,</tspan></text>
        <text
           xml:space="preserve"
           style="font-size:20px;font-style:normal;font-weight:normal;line-height:125%;letter-spacing:0px;word-spacing:0px;fill:#000000;fill-opacity:1;stroke:none;font-family:Sans"
           x="155"
           y="856.48425"
           id="text4654"
           sodipodi:linespacing="125%"><tspan
             sodipodi:role="line"
             id="tspan4656"
             x="155"
             y="856.48425">franz ludwig herb3rt</tspan></text>
        <text
           xml:space="preserve"
           style="font-size:20px;font-style:normal;font-weight:normal;line-height:125%;letter-spacing:0px;word-spacing:0px;fill:#000000;fill-opacity:1;stroke:none;font-family:Sans"
           x="35"
           y="797.36218"
           id="text4668"
           sodipodi:linespacing="125%"><tspan
             sodipodi:role="line"
             id="tspan4670"
             x="35"
             y="797.36218">Code</tspan></text>
        <text
           xml:space="preserve"
           style="font-size:20px;font-style:normal;font-weight:normal;line-height:125%;letter-spacing:0px;word-spacing:0px;fill:#000000;fill-opacity:1;stroke:none;font-family:Sans"
           x="36.025391"
           y="856.36218"
           id="text4672"
           sodipodi:linespacing="125%"><tspan
             sodipodi:role="line"
             id="tspan4674"
             x="36.025391"
             y="856.36218">Ausgabe</tspan></text>
        <rect
           y="752.36218"
           x="14"
           height="129"
           width="454"
           id="rect4713"
           style="fill:none;stroke:#010101;stroke-width:1.99999988;stroke-linecap:round;stroke-linejoin:round;stroke-miterlimit:4;stroke-opacity:1;stroke-dasharray:none;stroke-dashoffset:0" />
      </g>
      <text
         xml:space="preserve"
         style="font-size:20px;font-style:normal;font-weight:normal;line-height:125%;letter-spacing:0px;word-spacing:0px;fill:#000000;fill-opacity:1;stroke:none;font-family:Sans"
         x="107"
         y="782.99695"
         id="text4836"
         sodipodi:linespacing="125%"><tspan
           sodipodi:role="line"
           id="tspan4838"
           x="107"
           y="782.99695"><tspan
   style="fill:#fd3301"
   id="tspan4840">for</tspan> name in [<tspan
   style="fill:#015a01"
   id="tspan4842">'franz'</tspan>, <tspan
   style="fill:#015a01"
   id="tspan4844">'ludwig'</tspan>, <tspan
   style="fill:#015a01"
   id="tspan4846">'herb3rt'</tspan>]:</tspan><tspan
           sodipodi:role="line"
           x="107"
           y="807.99695"
           id="tspan4848"><tspan
   style="fill:#fd3301"
   id="tspan4850">    print</tspan> name,</tspan></text>
      <text
         xml:space="preserve"
         style="font-size:20px;font-style:normal;font-weight:normal;line-height:125%;letter-spacing:0px;word-spacing:0px;fill:#000000;fill-opacity:1;stroke:none;font-family:Sans"
         x="155"
         y="856.48425"
         id="text4852"
         sodipodi:linespacing="125%"><tspan
           sodipodi:role="line"
           id="tspan4854"
           x="155"
           y="856.48425">franz ludwig herb3rt</tspan></text>
      <text
         xml:space="preserve"
         style="font-size:20px;font-style:normal;font-weight:normal;line-height:125%;letter-spacing:0px;word-spacing:0px;fill:#000000;fill-opacity:1;stroke:none;font-family:Sans"
         x="35"
         y="797.36218"
         id="text4856"
         sodipodi:linespacing="125%"><tspan
           sodipodi:role="line"
           id="tspan4858"
           x="35"
           y="797.36218">Code</tspan></text>
      <text
         xml:space="preserve"
         style="font-size:20px;font-style:normal;font-weight:normal;line-height:125%;letter-spacing:0px;word-spacing:0px;fill:#000000;fill-opacity:1;stroke:none;font-family:Sans"
         x="36.025391"
         y="856.36218"
         id="text4860"
         sodipodi:linespacing="125%"><tspan
           sodipodi:role="line"
           id="tspan4862"
           x="36.025391"
           y="856.36218">Ausgabe</tspan></text>
      <rect
         y="752.36218"
         x="14"
         height="129"
         width="454"
         id="rect4864"
         style="fill:none;stroke:#010101;stroke-width:1.99999988;stroke-linecap:round;stroke-linejoin:round;stroke-miterlimit:4;stroke-opacity:1;stroke-dasharray:none;stroke-dashoffset:0" />
    </g>
    <g
       id="g5165"
       transform="translate(28,0)">
      <rect
         style="fill:none;stroke:#010101;stroke-width:1.99999988;stroke-linecap:round;stroke-linejoin:round;stroke-miterlimit:4;stroke-opacity:1;stroke-dasharray:none;stroke-dashoffset:0"
         id="rect5022"
         width="662"
         height="129"
         x="17"
         y="900.36218" />
      <text
         xml:space="preserve"
         style="font-size:20px;font-style:normal;font-weight:normal;line-height:125%;letter-spacing:0px;word-spacing:0px;fill:#000000;fill-opacity:1;stroke:none;font-family:Sans"
         x="45.871094"
         y="920.03796"
         id="text5024"
         sodipodi:linespacing="125%"><tspan
           sodipodi:role="line"
           id="tspan5026"
           x="45.871094"
           y="920.03796">Im Spiel:</tspan><tspan
           sodipodi:role="line"
           x="45.871094"
           y="945.03796"
           id="tspan5028">ich = held()  <tspan
   style="fill:#565248"
   id="tspan5064"># den benutzer in variable ich speichern</tspan></tspan><tspan
           sodipodi:role="line"
           x="45.871094"
           y="970.03796"
           id="tspan5034">held.name = ... <tspan
   style="fill:#565248"
   id="tspan5066"># name zuweisen, unter ihm wird abgespeichert</tspan></tspan><tspan
           sodipodi:role="line"
           x="45.871094"
           y="995.03796"
           id="tspan5032">hier = zimmer(<tspan
   style="fill:#015a01"
   id="tspan5070">'wohnzimmer'</tspan>) <tspan
   style="fill:#565248"
   id="tspan5068"># das wohnzimmer in die variablen hier</tspan></tspan><tspan
           sodipodi:role="line"
           x="45.871094"
           y="1020.038"
           id="tspan5036">weiter_im(...) <tspan
   style="fill:#565248"
   id="tspan5072"># im Zimmer ... geht es weiter</tspan></tspan><tspan
           sodipodi:role="line"
           x="45.871094"
           y="1045.038"
           id="tspan5030" /></text>
    </g>
    <text
       xml:space="preserve"
       style="font-size:20px;font-style:normal;font-weight:normal;line-height:125%;letter-spacing:0px;word-spacing:0px;fill:#000000;fill-opacity:1;stroke:none;font-family:Sans"
       x="382"
       y="610.36218"
       id="text5038"
       sodipodi:linespacing="125%"><tspan
         sodipodi:role="line"
         id="tspan5040"
         x="382"
         y="610.36218">Funktionen definieren um code</tspan><tspan
         sodipodi:role="line"
         x="382"
         y="635.36218"
         id="tspan5048">wieder zu verwenden</tspan></text>
    <text
       xml:space="preserve"
       style="font-size:20px;font-style:normal;font-weight:normal;line-height:125%;letter-spacing:0px;word-spacing:0px;fill:#000000;fill-opacity:1;stroke:none;font-family:Sans"
       x="493"
       y="659.36218"
       id="text5042"
       sodipodi:linespacing="125%"><tspan
         sodipodi:role="line"
         id="tspan5044"
         x="493"
         y="659.36218"><tspan
   style="fill:#fd3301"
   id="tspan5058">def</tspan> f(a):</tspan><tspan
         sodipodi:role="line"
         x="493"
         y="684.36218"
         id="tspan5052"><tspan
   style="fill:#fd3301"
   id="tspan5060">    print</tspan> a</tspan><tspan
         sodipodi:role="line"
         x="493"
         y="709.36218"
         id="tspan5054">f(1) <tspan
   style="fill:#565248"
   id="tspan5062"># gibt a aus</tspan></tspan><tspan
         sodipodi:role="line"
         x="493"
         y="734.36218"
         id="tspan5046">     </tspan></text>
    <rect
       style="fill:none;stroke:#010101;stroke-width:2;stroke-linecap:round;stroke-linejoin:round;stroke-miterlimit:4;stroke-opacity:1;stroke-dasharray:none;stroke-dashoffset:0"
       id="rect5086"
       width="217"
       height="100"
       x="456"
       y="284.36218" />
    <text
       xml:space="preserve"
       style="font-size:20px;font-style:normal;font-weight:normal;line-height:125%;letter-spacing:0px;word-spacing:0px;fill:#000000;fill-opacity:1;stroke:none;font-family:Sans"
       x="243.99745"
       y="514.94818"
       id="text5088"
       sodipodi:linespacing="125%"
       transform="matrix(0.86215681,-0.50664152,0.50664152,0.86215681,0,0)"><tspan
         sodipodi:role="line"
         id="tspan5090"
         x="243.99745"
         y="514.94818">Tips </tspan></text>
    <text
       xml:space="preserve"
       style="font-size:20px;font-style:normal;font-weight:normal;line-height:125%;letter-spacing:0px;word-spacing:0px;fill:#000000;fill-opacity:1;stroke:none;font-family:Sans"
       x="520"
       y="312.36218"
       id="text5092"
       sodipodi:linespacing="125%"><tspan
         sodipodi:role="line"
         id="tspan5094"
         x="520"
         y="312.36218">Leerzeichen</tspan></text>
    <text
       xml:space="preserve"
       style="font-size:20px;font-style:normal;font-weight:normal;line-height:125%;letter-spacing:0px;word-spacing:0px;fill:#000000;fill-opacity:1;stroke:none;font-family:Sans"
       x="468"
       y="341.36218"
       id="text5096"
       sodipodi:linespacing="125%"><tspan
         sodipodi:role="line"
         id="tspan5098"
         x="468"
         y="341.36218">lesbare Var_Nam =  ...</tspan></text>
    <text
       xml:space="preserve"
       style="font-size:20px;font-style:normal;font-weight:normal;line-height:125%;letter-spacing:0px;word-spacing:0px;fill:#000000;fill-opacity:1;stroke:none;font-family:Sans"
       x="460"
       y="369.36218"
       id="text5100"
       sodipodi:linespacing="125%"><tspan
         sodipodi:role="line"
         id="tspan5102"
         x="460"
         y="369.36218">nach : immer einrücken</tspan></text>
    <path
       style="fill:none;stroke:#000000;stroke-width:1px;stroke-linecap:butt;stroke-linejoin:miter;stroke-opacity:1;filter:url(#filter5192)"
       d="m 520,580.36218 c -3,0 -6,0 -9,0 -8.66667,0 -17.33333,0 -26,0 -3.66667,0 -7.33333,0 -11,0 -0.67574,0 -1.3497,-0.0596 -2.01859,-0.1555 -0.33445,-0.048 -0.67091,-0.094 -1.0087,-0.0871 -0.3378,0.007 -0.68165,0.071 -0.97271,0.24259 -0.40786,0.24044 -0.66838,0.66209 -1,1 -0.43385,0.44208 -0.99934,0.74445 -1.59714,0.90664 -0.59779,0.16219 -1.22739,0.18821 -1.84352,0.12453 -1.23225,-0.12734 -2.39687,-0.60299 -3.55934,-1.03117 -0.32845,-0.12098 -0.66293,-0.23959 -1.01182,-0.26778 -0.17445,-0.0141 -0.35158,-0.005 -0.52141,0.0372 -0.16982,0.0423 -0.3323,0.11855 -0.46677,0.23056 -0.18426,0.15348 -0.30795,0.3653 -0.44986,0.55861 -0.0709,0.0966 -0.14763,0.18995 -0.23826,0.26846 -0.0906,0.0785 -0.19601,0.14209 -0.31188,0.17293 -0.16222,0.0432 -0.33377,0.0204 -0.50014,-0.002 -0.16637,-0.0224 -0.33837,-0.0438 -0.49986,0.002 -0.11521,0.0327 -0.21912,0.0986 -0.30802,0.1788 -0.0889,0.0803 -0.1637,0.17483 -0.23362,0.27207 -0.13984,0.19447 -0.2662,0.40613 -0.45836,0.54913 -0.2045,0.15218 -0.46555,0.21161 -0.72038,0.21816 -0.25482,0.007 -0.50824,-0.0349 -0.75947,-0.078 -0.50245,-0.0863 -1.01033,-0.14012 -1.52015,-0.14012 l -6,0 c -0.33397,0 -0.66781,-0.0111 -1.00129,-0.029 -0.33348,-0.0179 -0.67133,-0.037 -0.99871,0.029 -0.36694,0.074 -0.703,0.25467 -1.02293,0.44898 -0.31992,0.19432 -0.63213,0.40568 -0.97707,0.55102 -0.46429,0.19562 -0.97337,0.26538 -1.47713,0.27284 -0.50376,0.007 -1.00635,-0.0444 -1.50727,-0.0983 -1.00184,-0.10785 -2.00797,-0.17455 -3.0156,-0.17455 l -9,0 -2,0 c -0.3342,0 -0.66822,-0.0129 -1.00176,-0.0339 -0.33354,-0.0209 -0.67302,-0.043 -0.99824,0.0339 -0.36462,0.0862 -0.68642,0.29493 -1,0.5 -0.31358,0.20507 -0.63538,0.41376 -1,0.5 -0.32522,0.0769 -0.6647,0.0548 -0.99824,0.0339 -0.33354,-0.021 -0.66756,-0.0339 -1.00176,-0.0339 -1.33333,0 -2.66667,0 -4,0 -2.66667,0 -5.33333,0 -8,0 -0.8532,0 -1.70246,-0.099 -2.54084,-0.25737 -0.41918,-0.0792 -0.84281,-0.1552 -1.26923,-0.1428 -0.42642,0.0124 -0.86502,0.12373 -1.18993,0.40017 -0.18098,0.15398 -0.31832,0.35152 -0.46696,0.5369 -0.14865,0.18539 -0.31659,0.36506 -0.53304,0.4631 -0.15314,0.0694 -0.32323,0.0943 -0.49132,0.097 -0.16809,0.003 -0.33575,-0.0157 -0.50276,-0.0349 -0.33404,-0.0383 -0.66969,-0.0621 -1.00592,-0.0621 l -4,0 -7,0 -2,0 c -0.16748,0 -0.3348,-0.009 -0.50166,-0.0233 -0.16686,-0.0144 -0.33931,-0.0293 -0.49834,0.0233 -0.11364,0.0375 -0.2138,0.10908 -0.2984,0.19373 -0.0846,0.0847 -0.15477,0.18246 -0.22225,0.28131 -0.0675,0.0988 -0.13287,0.19945 -0.20938,0.29148 -0.0765,0.092 -0.16506,0.17589 -0.26997,0.23348 -0.14959,0.0821 -0.3254,0.10664 -0.49582,0.0979 -0.17042,-0.009 -0.33748,-0.049 -0.50318,-0.0898 -0.16571,-0.0408 -0.3323,-0.0824 -0.50256,-0.0939 -0.17026,-0.0115 -0.34625,0.009 -0.49844,0.0858 -0.10638,0.0539 -0.19778,0.13399 -0.27717,0.22301 -0.0794,0.089 -0.14757,0.1873 -0.21624,0.28483 -0.0687,0.0975 -0.13835,0.1949 -0.22028,0.28158 -0.0819,0.0867 -0.17699,0.16287 -0.28631,0.21058 -0.15468,0.0675 -0.32923,0.0746 -0.4974,0.0603 -0.16816,-0.0142 -0.33423,-0.0487 -0.5026,-0.0603 -0.38695,-0.0268 -0.77811,0.0693 -1.12114,0.25035 -0.34303,0.18105 -0.63896,0.44486 -0.87886,0.74965 -0.14822,0.18832 -0.27594,0.39248 -0.43077,0.5754 -0.15483,0.18292 -0.34243,0.34717 -0.56923,0.4246 -0.16033,0.0547 -0.33336,0.0636 -0.50221,0.0497 -0.16885,-0.0139 -0.33497,-0.0499 -0.50112,-0.083 -0.16615,-0.0331 -0.3338,-0.0636 -0.5032,-0.0662 -0.1694,-0.003 -0.34187,0.0239 -0.49347,0.0995 -0.17109,0.0854 -0.30785,0.22989 -0.4071,0.39331 -0.0993,0.16343 -0.16333,0.34578 -0.21488,0.5299 -0.10311,0.36825 -0.16352,0.7602 -0.37802,1.07679 -0.21337,0.31493 -0.55737,0.51881 -0.91224,0.65583 -0.35487,0.13702 -0.72925,0.21697 -1.08776,0.34417 -1.1267,0.39975 -2.04078,1.24532 -2.80291,2.16641 -0.76213,0.9211 -1.40618,1.93708 -2.19709,2.83359 -0.31207,0.35373 -0.64627,0.68793 -1,1 -0.20443,0.33551 -0.50484,0.61181 -0.85624,0.78751 -0.35141,0.17571 -0.75269,0.25026 -1.14376,0.21249 -0.16835,-0.0163 -0.33433,-0.0528 -0.50287,-0.0669 -0.16854,-0.0141 -0.34383,-0.005 -0.49713,0.0669 -0.12255,0.0571 -0.22586,0.15219 -0.29992,0.2653 -0.0741,0.11312 -0.1195,0.24377 -0.13989,0.37743 -0.0408,0.26732 0.0172,0.54049 0.10368,0.79671 0.0865,0.25622 0.2014,0.50244 0.28018,0.76112 0.0788,0.25868 0.12042,0.53683 0.0559,0.79944 -0.0574,0.2337 -0.19605,0.44146 -0.36559,0.61223 -0.16955,0.17076 -0.36972,0.30768 -0.57217,0.43775 -0.20245,0.13008 -0.40914,0.25486 -0.59681,0.40549 -0.18766,0.15062 -0.35731,0.32955 -0.46543,0.54453 -0.1135,0.22567 -0.15485,0.48179 -0.1593,0.73436 -0.004,0.25256 0.0258,0.50434 0.0573,0.75498 0.063,0.50127 0.10201,1.00545 0.10201,1.51066 l 0,7 c 0,0.83741 -0.0444,1.67401 -0.1164,2.50832 -0.072,0.83431 -0.14636,1.69657 0.1164,2.49168 0.23423,0.70877 0.72745,1.30506 1,2 0.194,0.49466 0.27106,1.02574 0.38685,1.54432 0.11578,0.51857 0.27884,1.04269 0.61315,1.45568 0.30097,0.3718 0.71824,0.62658 1.10209,0.91203 0.19193,0.14273 0.37795,0.2954 0.53677,0.47423 0.15883,0.17883 0.29031,0.38529 0.36114,0.61374 0.0993,0.3203 0.0752,0.66465 0.0375,0.99788 -0.0376,0.33322 -0.0878,0.67056 -0.0375,1.00212 0.0544,0.35876 0.22551,0.69318 0.45238,0.97637 0.22686,0.28319 0.50821,0.51836 0.80337,0.72944 0.5903,0.42214 1.25072,0.76212 1.74425,1.29419 0.5097,0.54951 0.80189,1.26182 1.06122,1.96503 0.25932,0.70321 0.5022,1.42575 0.93878,2.03497 0.71074,0.99179 1.85615,1.57525 3,2 1.06712,0.39626 2.18488,0.69339 3.15491,1.28907 0.48501,0.29783 0.9295,0.67102 1.26442,1.13121 0.33491,0.46018 0.55644,1.01108 0.58067,1.57972 0.0217,0.50866 -0.11197,1.00928 -0.18371,1.51332 -0.0359,0.25202 -0.0563,0.50765 -0.034,0.76122 0.0223,0.25358 0.0888,0.50596 0.21771,0.72546 0.12162,0.20706 0.29526,0.37941 0.48382,0.52812 0.18856,0.1487 0.39307,0.27564 0.59258,0.40929 0.19951,0.13365 0.39562,0.27533 0.56171,0.44878 0.16608,0.17344 0.30191,0.38128 0.36189,0.61381 0.0843,0.32685 0.014,0.6708 -0.0423,1.0036 -0.0282,0.16639 -0.0529,0.33416 -0.0528,0.50293 1.4e-4,0.16877 0.026,0.33952 0.0951,0.49347 0.10167,0.22629 0.29088,0.40316 0.49861,0.53877 0.20774,0.13561 0.43638,0.23527 0.65668,0.34934 0.22031,0.11406 0.43657,0.2459 0.60089,0.43176 0.0822,0.0929 0.15045,0.19891 0.19454,0.31485 0.0441,0.11595 0.0635,0.24205 0.0493,0.36528 -0.0206,0.17867 -0.1094,0.34227 -0.14773,0.51799 -0.0192,0.0879 -0.0254,0.18011 -0.004,0.26738 0.0217,0.0873 0.0738,0.16925 0.1514,0.21463 0.0757,0.0442 0.16861,0.0504 0.25517,0.0365 0.0865,-0.0139 0.16886,-0.0462 0.25161,-0.0751 0.0828,-0.0289 0.16818,-0.0548 0.25584,-0.0551 0.0438,-1.3e-4 0.0879,0.006 0.12899,0.0215 0.0411,0.0152 0.0792,0.0395 0.10839,0.0721 0.0294,0.0328 0.0493,0.0735 0.0601,0.11622 0.0108,0.0427 0.0127,0.0874 0.008,0.1312 -0.008,0.0877 -0.0406,0.17106 -0.0722,0.25329 -0.0316,0.0822 -0.0631,0.16594 -0.0703,0.25373 -0.004,0.0439 -8.7e-4,0.0885 0.0109,0.13099 0.0118,0.0424 0.0328,0.0826 0.0631,0.11457 0.0303,0.0318 0.0692,0.0548 0.11093,0.0686 0.0417,0.0138 0.0861,0.0186 0.12995,0.0169 0.0878,-0.003 0.17242,-0.032 0.25485,-0.0623 0.0824,-0.0303 0.16511,-0.0628 0.25218,-0.0744 0.0435,-0.006 0.088,-0.006 0.13121,0.002 0.0432,0.008 0.0852,0.024 0.12088,0.0496 0.0358,0.0257 0.0646,0.0605 0.0853,0.0994 0.0206,0.0389 0.0332,0.0819 0.0389,0.12552 0.0115,0.0873 -0.004,0.17613 -0.0273,0.26102 -0.0235,0.0849 -0.0551,0.1674 -0.0774,0.25263 -0.0222,0.0852 -0.0349,0.17472 -0.0195,0.26144 0.0213,0.12005 0.0953,0.22571 0.18627,0.30688 0.091,0.0812 0.19876,0.14076 0.30592,0.19891 0.10717,0.0581 0.21561,0.11616 0.30878,0.1948 0.0932,0.0786 0.17117,0.18071 0.19903,0.29941 0.0197,0.0841 0.0135,0.17242 -0.003,0.25724 -0.0165,0.0848 -0.0429,0.16735 -0.0637,0.25121 -0.0208,0.0839 -0.0361,0.17023 -0.0296,0.25638 0.006,0.0862 0.0365,0.17277 0.0962,0.23517 0.06,0.0627 0.14579,0.0964 0.23205,0.10573 0.0863,0.009 0.17348,-0.004 0.25788,-0.0239 0.0844,-0.0201 0.1671,-0.047 0.2518,-0.0658 0.0847,-0.0188 0.17254,-0.0293 0.25827,-0.016 0.0985,0.0153 0.19081,0.0621 0.26618,0.12731 0.0754,0.0652 0.13422,0.1482 0.17736,0.23802 0.0863,0.17965 0.10982,0.38231 0.12446,0.58107 0.0146,0.19875 0.022,0.4004 0.0797,0.59116 0.0288,0.0954 0.0704,0.1875 0.12885,0.2682 0.0584,0.0807 0.13424,0.14979 0.22342,0.19424 0.15125,0.0754 0.32883,0.0755 0.49663,0.0553 0.1678,-0.0201 0.33441,-0.0589 0.50337,-0.0553 0.18641,0.004 0.37001,0.0599 0.5331,0.1503 0.16309,0.0904 0.30621,0.21434 0.42857,0.35502 0.24472,0.28137 0.40505,0.62459 0.55923,0.96413 0.15418,0.33954 0.30804,0.68477 0.54283,0.97448 0.1174,0.14485 0.25478,0.27475 0.41294,0.37349 0.15815,0.0987 0.33764,0.16574 0.52333,0.18258 0.16693,0.0151 0.33448,-0.01 0.5013,-0.0264 0.16681,-0.0163 0.33864,-0.0234 0.4987,0.0264 0.22852,0.071 0.40723,0.2496 0.55395,0.43866 0.14672,0.18906 0.27281,0.39624 0.44605,0.56134 0.27175,0.25898 0.63608,0.39322 0.99112,0.51515 0.35503,0.12192 0.72141,0.24343 1.00888,0.48485 0.18159,0.1525 0.32308,0.34602 0.47332,0.52948 0.15025,0.18347 0.31568,0.3623 0.52668,0.47052 0.15041,0.0772 0.31877,0.11522 0.48741,0.12693 0.16863,0.0117 0.3381,-0.002 0.50564,-0.0248 0.33507,-0.045 0.6696,-0.12443 1.00695,-0.10216 0.30507,0.0201 0.60072,0.12373 0.86839,0.27146 0.26766,0.14774 0.50907,0.33888 0.73707,0.54257 0.45599,0.40736 0.86941,0.87272 1.39454,1.18597 0.32112,0.19156 0.6748,0.3204 1.02097,0.46177 0.34617,0.14137 0.69154,0.29914 0.97903,0.53823 0.36305,0.30193 0.61884,0.72129 1,1 0.42919,0.31383 0.97209,0.41803 1.49571,0.51026 0.52363,0.0922 1.06645,0.1881 1.50429,0.48974 0.39263,0.27049 0.66213,0.68007 0.94528,1.06367 0.14158,0.1918 0.28951,0.38015 0.4618,0.54492 0.17228,0.16477 0.37034,0.30605 0.59292,0.39141 0.31407,0.12045 0.6607,0.1243 0.99578,0.0948 0.33508,-0.0295 0.66787,-0.0907 1.00422,-0.0948 0.78798,-0.01 1.57482,0.31073 2.13204,0.86796 0.55723,0.55722 0.87755,1.34406 0.86796,2.13204 0.51124,0.87552 1.24613,1.61921 2.1155,2.14084 0.86937,0.52162 1.8714,0.82008 2.8845,0.85916 0.33312,0.0129 0.66664,-0.002 1,0 0.54137,0.003 1.08649,0.0501 1.60628,0.20141 0.51979,0.15136 1.01525,0.41148 1.39372,0.79859 0.33735,0.34505 0.57024,0.77645 0.85975,1.16251 0.14476,0.19303 0.30519,0.37621 0.49449,0.52581 0.18929,0.14961 0.40903,0.26507 0.64576,0.31168 0.33096,0.0652 0.67124,-0.006 1.00454,-0.0581 0.16665,-0.026 0.33479,-0.0471 0.50342,-0.0437 0.16862,0.003 0.33853,0.032 0.49204,0.10183 0.21632,0.0985 0.38861,0.27275 0.54006,0.45592 0.15145,0.18316 0.28819,0.3798 0.45994,0.54408 0.27812,0.26602 0.63624,0.4351 1.00378,0.54925 0.36754,0.11416 0.74856,0.17738 1.12453,0.25965 0.37596,0.0823 0.75196,0.18549 1.08859,0.37202 0.33664,0.18654 0.63397,0.46429 0.7831,0.81908 0.15585,0.37079 0.13906,0.78958 0.23179,1.18095 0.0464,0.19569 0.12241,0.38815 0.25139,0.54245 0.0645,0.0772 0.14186,0.14402 0.2298,0.19278 0.0879,0.0488 0.18658,0.0791 0.28702,0.0838 0.17331,0.008 0.34011,-0.0588 0.51006,-0.0937 0.085,-0.0175 0.17263,-0.027 0.25854,-0.015 0.0859,0.012 0.17042,0.047 0.2314,0.10866 0.0609,0.0616 0.0948,0.14633 0.10604,0.23221 0.0112,0.0859 0.001,0.17329 -0.0165,0.25809 -0.0353,0.16959 -0.10117,0.33686 -0.0895,0.5097 0.007,0.0997 0.0396,0.19692 0.0908,0.28273 0.0512,0.0858 0.12025,0.16034 0.1991,0.22169 0.15769,0.12269 0.3512,0.19143 0.54652,0.23348 0.19532,0.0421 0.39503,0.0593 0.5924,0.0903 0.19736,0.0311 0.39528,0.0771 0.57123,0.17175 0.20868,0.11227 0.3762,0.2873 0.52889,0.46852 0.15268,0.18122 0.29531,0.37258 0.47111,0.53148 0.27775,0.25105 0.62549,0.40971 0.97362,0.54745 0.34814,0.13774 0.70543,0.25977 1.02638,0.45255 0.40562,0.24364 0.73787,0.59116 1.04709,0.94931 0.30923,0.35815 0.60235,0.73289 0.95291,1.05069 0.55912,0.50688 1.25902,0.85683 2,1 0.54498,0.77509 1.22491,1.45502 2,2 0.98494,0.69253 2.12545,1.17242 3,2 0.68714,0.65023 1.19548,1.50229 2,2 0.31781,0.19661 0.66989,0.32958 1.01561,0.47149 0.34572,0.1419 0.69153,0.29636 0.98439,0.52851 0.57503,0.45582 0.88535,1.15668 1.28137,1.77442 0.198,0.30888 0.42445,0.60469 0.71146,0.83324 0.28701,0.22854 0.64032,0.38675 1.00717,0.39234 0.16796,0.003 0.33459,-0.0264 0.50189,-0.0415 0.1673,-0.0151 0.34014,-0.0156 0.49811,0.0415 0.18167,0.0657 0.33078,0.20434 0.43555,0.36664 0.10476,0.1623 0.16847,0.34773 0.21617,0.53492 0.0954,0.37439 0.13559,0.7759 0.34828,1.09844 0.13028,0.19757 0.31641,0.35056 0.49971,0.50026 0.18329,0.14971 0.36957,0.30246 0.50029,0.49974 0.21321,0.32177 0.25509,0.72257 0.351,1.09646 0.048,0.18695 0.11159,0.37214 0.21583,0.53457 0.10424,0.16243 0.2523,0.30163 0.43317,0.36897 0.15754,0.0587 0.33052,0.0603 0.498,0.0458 0.16748,-0.0145 0.33391,-0.0442 0.502,-0.0458 0.39506,-0.004 0.78918,0.15625 1.06986,0.43429 0.28068,0.27804 0.44438,0.67063 0.44438,1.06571 0,0.39508 -0.1637,0.78767 -0.44438,1.06571 -0.28068,0.27804 -0.6748,0.43802 -1.06986,0.43429 0.53279,-0.0369 1.07765,0.16707 1.45529,0.54471 0.37764,0.37764 0.58158,0.9225 0.54471,1.45529 -0.0116,0.16835 -0.046,0.33443 -0.0602,0.50259 -0.0142,0.16816 -0.007,0.34266 0.0602,0.49741 0.0767,0.17635 0.22686,0.31332 0.39594,0.40494 0.16909,0.0916 0.35725,0.14186 0.54523,0.18246 0.18798,0.0406 0.37838,0.0725 0.56159,0.13099 0.18321,0.0585 0.36123,0.14564 0.49724,0.28161 0.136,0.13596 0.22322,0.31395 0.28174,0.49714 0.0585,0.18318 0.0905,0.37356 0.13108,0.56153 0.0406,0.18797 0.0908,0.37612 0.18242,0.54522 0.0916,0.1691 0.22847,0.31929 0.40476,0.39611 0.15472,0.0674 0.32923,0.0746 0.49741,0.0605 0.16817,-0.0141 0.33424,-0.0485 0.50259,-0.0605 0.61501,-0.0436 1.22346,0.22005 1.69538,0.61681 0.47192,0.39677 0.82256,0.91803 1.12621,1.45462 0.30365,0.5366 0.56726,1.09639 0.90068,1.61502 0.33342,0.51862 0.74574,1.00192 1.27773,1.31355 0.45638,0.26734 0.97857,0.39634 1.4937,0.51632 0.51513,0.11998 1.03854,0.23679 1.5063,0.48368 0.62895,0.33198 1.11587,0.87685 1.56327,1.42967 0.4474,0.55283 0.87659,1.13212 1.43673,1.57033 0.71058,0.55591 1.58726,0.85011 2.45444,1.09902 0.86717,0.24892 1.75471,0.46681 2.54556,0.90098 0.7328,0.40231 1.35468,0.9752 1.97765,1.53265 0.62298,0.55745 1.26557,1.1122 2.02235,1.46735 0.96759,0.45408 2.05635,0.55304 3.10876,0.73981 0.5262,0.0934 1.05074,0.21092 1.54807,0.40655 0.49733,0.19563 0.96868,0.47237 1.34317,0.85364 0.33583,0.34192 0.5851,0.75763 0.88093,1.1347 0.29583,0.37707 0.65965,0.72883 1.11907,0.8653 0.32123,0.0954 0.6643,0.0781 0.99776,0.045 0.33346,-0.0332 0.66912,-0.0814 1.00224,-0.045 0.3747,0.0409 0.73101,0.18791 1.05871,0.37416 0.3277,0.18625 0.63085,0.41206 0.94129,0.62584 1.49328,1.0283 3.19884,1.7923 5,2 0.99475,0.11471 2.00041,0.0592 3,0 1.99956,-0.1184 4.01267,-0.25053 6,0 1.68687,0.21265 3.32686,0.69772 5,1 2.96669,0.53598 6.02555,0.49109 9,0 0.49999,-0.0825 0.99951,-0.17777 1.50555,-0.20461 0.50605,-0.0268 1.02362,0.0172 1.49445,0.20461 0.71708,0.28543 1.26234,0.87195 1.86957,1.34834 0.30362,0.23819 0.63069,0.45326 0.99364,0.58435 0.36295,0.13108 0.76592,0.17394 1.13679,0.0673 0.3736,-0.10741 0.69531,-0.35832 1.07258,-0.45202 0.18863,-0.0469 0.39319,-0.0515 0.57282,0.0228 0.0898,0.0371 0.17208,0.0938 0.2352,0.16766 0.0631,0.0739 0.10659,0.16526 0.1194,0.26159 0.0115,0.0867 -0.002,0.17493 -0.0227,0.25979 -0.0211,0.0849 -0.0501,0.1676 -0.0713,0.25246 -0.0212,0.0849 -0.0344,0.17307 -0.023,0.25978 0.0114,0.0867 0.0495,0.17229 0.11694,0.22797 0.0657,0.0543 0.15329,0.076 0.23849,0.0784 0.0852,0.002 0.16987,-0.0125 0.25368,-0.028 0.16763,-0.031 0.33735,-0.0504 0.50783,-0.0504 1.33333,0 2.66667,0 4,0 5.33333,0 10.66667,0 16,0 7.66667,0 15.33333,0 23,0 2.33363,0 4.6695,0.12095 7,0 3.72669,-0.19341 7.35397,-1.20495 11,-2 4.66441,-1.01711 9.40982,-1.68796 14,-3 3.753,-1.07274 7.37003,-2.56504 11,-4 2.64876,-1.04708 5.30949,-2.06539 8,-3 2.69174,-0.93503 5.42053,-1.78918 8,-3 2.02458,-0.95035 3.94584,-2.11539 6,-3 1.93761,-0.83442 3.97421,-1.41112 6,-2 4.0506,-1.17747 8.09076,-2.41519 12,-4 1.66381,-0.67451 3.30375,-1.41182 5,-2 1.7005,-0.58965 3.47813,-1.03912 5,-2 1.01796,-0.64272 1.903,-1.50411 3,-2 1.25488,-0.56726 2.67966,-0.60857 4,-1 1.61293,-0.47817 3.02827,-1.46705 4.29666,-2.57221 1.26839,-1.10516 2.42003,-2.33999 3.70334,-3.42779 2.90515,-2.46256 6.46554,-4.15736 9,-7 1.10965,-1.24459 1.98875,-2.67421 3,-4 1.14751,-1.50444 2.4736,-2.88186 4,-4 0.58005,-0.42491 1.18917,-0.81274 1.73211,-1.28414 0.54294,-0.4714 1.02449,-1.03928 1.26789,-1.71586 0.18128,-0.50391 0.22327,-1.04531 0.32631,-1.57083 0.0515,-0.26276 0.11898,-0.52367 0.22537,-0.76939 0.10639,-0.24572 0.25301,-0.47661 0.44832,-0.65978 0.17517,-0.16428 0.38493,-0.28653 0.57391,-0.43472 0.0945,-0.0741 0.18424,-0.15517 0.25936,-0.24884 0.0751,-0.0937 0.13547,-0.2005 0.16673,-0.31644 0.0435,-0.16145 0.0311,-0.33207 0.0192,-0.49887 C 710.00733,681.69651 710,681.5294 710,681.36218 l 0,-1 c 0,-2.00013 -0.0723,-4.00118 0,-6 0.19449,-5.37527 1.77764,-10.62581 2,-16 0.0965,-2.33153 0,-4.66648 0,-7 0,-3.66667 0,-7.33333 0,-11 0,-1 0,-2 0,-3 0,-0.5026 0.0275,-1.00468 0.072,-1.5053 0.0445,-0.50063 0.0904,-1.01906 -0.072,-1.4947 -0.10065,-0.29482 -0.28106,-0.55901 -0.50243,-0.7782 -0.22136,-0.21919 -0.48303,-0.3948 -0.75904,-0.53926 -0.55202,-0.28891 -1.15873,-0.45445 -1.73853,-0.68254 -0.49362,-0.19418 -0.96823,-0.43396 -1.46056,-0.63139 -0.49233,-0.19743 -1.00921,-0.35342 -1.53944,-0.36861 -0.33486,-0.01 -0.66841,0.0371 -1.00243,0.0628 -0.33401,0.0257 -0.67557,0.0297 -0.99757,-0.0628 -0.36039,-0.10345 -0.67515,-0.32105 -0.98841,-0.52709 -0.31326,-0.20603 -0.64232,-0.40792 -1.01159,-0.47291 -0.33078,-0.0582 -0.66942,-0.002 -1.00257,0.0403 -0.33316,0.0425 -0.68028,0.0703 -0.99743,-0.0403 -0.22473,-0.0783 -0.42174,-0.2223 -0.59285,-0.38771 -0.17111,-0.16541 -0.3194,-0.35267 -0.46619,-0.54 -0.29357,-0.37467 -0.60439,-0.73572 -0.94096,-1.07229 l -1,-1 c -0.16763,-0.16763 -0.34475,-0.3254 -0.52731,-0.47663 -0.18257,-0.15124 -0.37214,-0.30868 -0.47269,-0.52337 -0.0721,-0.15396 -0.0913,-0.32844 -0.0814,-0.49816 0.01,-0.16971 0.0477,-0.3364 0.0851,-0.50226 0.0374,-0.16585 0.0745,-0.33273 0.0832,-0.50252 0.009,-0.16978 -0.0125,-0.34419 -0.0869,-0.49706 -0.0606,-0.1246 -0.15521,-0.23133 -0.26663,-0.31371 -0.11143,-0.0824 -0.2394,-0.14095 -0.37234,-0.18005 -0.26588,-0.0782 -0.54771,-0.079 -0.82478,-0.0727 -0.27707,0.006 -0.5569,0.0192 -0.82902,-0.0334 -0.27212,-0.0525 -0.54092,-0.17852 -0.70723,-0.40021 -0.10727,-0.14299 -0.1667,-0.32124 -0.1667,-0.5 0,-0.17876 0.0594,-0.35701 0.1667,-0.5 -0.20248,-0.72202 -0.54387,-1.40481 -1,-2 -0.37081,-0.48387 -0.8142,-0.90759 -1.19807,-1.38117 -0.38386,-0.47359 -0.71428,-1.01555 -0.80193,-1.61883 -0.0961,-0.66128 0.10671,-1.34035 0,-2 -0.0972,-0.60052 -0.44276,-1.13183 -0.831,-1.60016 -0.38824,-0.46833 -0.8283,-0.89586 -1.169,-1.39984 -0.59563,-0.88109 -0.85435,-1.94649 -1,-3 -0.095,-0.68742 -0.14687,-1.38126 -0.27582,-2.06313 -0.12895,-0.68188 -0.33962,-1.35921 -0.72418,-1.93687 -0.26295,-0.395 -0.6047,-0.73751 -1,-1 -0.72558,-0.48181 -1.61672,-0.68248 -2.48713,-0.65082 -0.8704,0.0317 -1.72216,0.2856 -2.51287,0.65082 -0.16504,0.0762 -0.33176,0.15852 -0.51233,0.17966 -0.0903,0.0106 -0.18327,0.005 -0.26947,-0.0236 -0.0862,-0.0288 -0.16533,-0.0821 -0.2182,-0.15603 -0.0497,-0.0694 -0.0746,-0.1544 -0.0815,-0.23947 -0.007,-0.0851 0.003,-0.17069 0.0186,-0.25464 0.0309,-0.1679 0.0831,-0.33638 0.0629,-0.50589 -0.0235,-0.19708 -0.1456,-0.37353 -0.30364,-0.49358 -0.15805,-0.12005 -0.34954,-0.18882 -0.54312,-0.23261 -0.19358,-0.0438 -0.39159,-0.0642 -0.58717,-0.0979 -0.19559,-0.0337 -0.39137,-0.0817 -0.56607,-0.17586 -0.21365,-0.11517 -0.38651,-0.29472 -0.52978,-0.49064 -0.14326,-0.19592 -0.25986,-0.40971 -0.38613,-0.61699 -0.12627,-0.20728 -0.26421,-0.41048 -0.44228,-0.57541 -0.17807,-0.16493 -0.40056,-0.29037 -0.64181,-0.31696 -0.16692,-0.0184 -0.33486,0.0106 -0.5017,0.0297 -0.16685,0.0191 -0.34039,0.0275 -0.4983,-0.0297 -0.18187,-0.0658 -0.32527,-0.21409 -0.41861,-0.38349 -0.0933,-0.16939 -0.14148,-0.35972 -0.17868,-0.54952 -0.0372,-0.1898 -0.0646,-0.38212 -0.12051,-0.56726 -0.0559,-0.18515 -0.14301,-0.36544 -0.2822,-0.49973 -0.1259,-0.12147 -0.28967,-0.19984 -0.46038,-0.23808 -0.17072,-0.0382 -0.34843,-0.0378 -0.52195,-0.0155 -0.34703,0.0446 -0.67682,0.17452 -1.01767,0.25354 -0.41432,0.096 -0.86108,0.11377 -1.25474,-0.0472 -0.19683,-0.0805 -0.37694,-0.20556 -0.51133,-0.37038 -0.13438,-0.16481 -0.22148,-0.37009 -0.23393,-0.58238 -0.01,-0.16835 0.0262,-0.33548 0.0467,-0.50288 0.0204,-0.16739 0.0239,-0.34393 -0.0467,-0.49712 -0.0437,-0.0949 -0.11509,-0.17697 -0.20311,-0.23335 -0.088,-0.0564 -0.19236,-0.0869 -0.29689,-0.0869 -0.10453,0 -0.20888,0.0306 -0.29689,0.0869 -0.088,0.0564 -0.15941,0.1384 -0.20311,0.23335 -1.51348,-0.16523 -2.95973,-0.88835 -4,-2 -0.32286,-0.34501 -0.61237,-0.72979 -1,-1 -0.43475,-0.30305 -0.96142,-0.43992 -1.47926,-0.55257 -0.51784,-0.11266 -1.04727,-0.20937 -1.52074,-0.44743 -0.54272,-0.27288 -0.97793,-0.71396 -1.43391,-1.11532 -0.45599,-0.40135 -0.96755,-0.78092 -1.56609,-0.88468 -0.32938,-0.0571 -0.6668,-0.027 -1,0 -0.66593,0.054 -1.33865,0.0949 -2,0 -1.04596,-0.15005 -2.01013,-0.63025 -3,-1 -0.7034,-0.26274 -1.45223,-0.48643 -2,-1 -0.34508,-0.32354 -0.59723,-0.75194 -1,-1 -0.29001,-0.17862 -0.6373,-0.24782 -0.9779,-0.24779 -0.34061,2e-5 -0.67763,0.0657 -1.01001,0.14006 -0.33239,0.0744 -0.66385,0.15793 -1.00246,0.19473 -0.33862,0.0368 -0.68803,0.0252 -1.00963,-0.087 -0.35579,-0.12412 -0.65746,-0.36292 -0.96848,-0.57566 -0.31102,-0.21273 -0.65505,-0.40811 -1.03152,-0.42434 -0.16778,-0.007 -0.3347,0.0217 -0.50185,0.0379 -0.16715,0.0162 -0.34017,0.0191 -0.49815,-0.0379 -0.11223,-0.0405 -0.21246,-0.10982 -0.29941,-0.1915 -0.087,-0.0817 -0.16136,-0.17571 -0.23213,-0.27176 -0.14153,-0.19209 -0.27417,-0.39823 -0.46846,-0.53674 -0.20731,-0.14779 -0.46774,-0.20498 -0.72226,-0.21126 -0.25452,-0.006 -0.50771,0.0338 -0.75886,0.0756 -0.5023,0.0836 -1.00968,0.13563 -1.51888,0.13563 -3,0 -6,0 -9,0 -1.33333,0 -2.66667,0 -4,0 -0.66712,0 -1.33763,0.0795 -2,0 -0.52471,-0.063 -1.02397,-0.25684 -1.51128,-0.46134 -0.48731,-0.2045 -0.97313,-0.42264 -1.48872,-0.53866 -0.81657,-0.18374 -1.66671,-0.10298 -2.49917,-0.016 -0.83245,0.087 -1.67983,0.17877 -2.50083,0.016 -1.03572,-0.20536 -1.96259,-0.80334 -3,-1 -0.6561,-0.12438 -1.33078,-0.0885 -1.99771,-0.0546 -0.66693,0.0338 -1.3345,0.0546 -2.00229,0.0546 l -8,0 c -0.50059,0 -1.00106,0.0131 -1.5012,0.0343 -0.50014,0.0212 -1.00435,0.0438 -1.4988,-0.0343 -1.04328,-0.16486 -1.96719,-0.77883 -3,-1 -0.81817,-0.1752 -1.66685,-0.0964 -2.49936,-0.0126 -0.83251,0.0838 -1.6791,0.17124 -2.50064,0.0126 -1.03652,-0.20012 -1.96758,-0.77973 -3,-1 -0.81672,-0.17425 -1.66264,-0.12407 -2.49639,-0.0766 -0.83376,0.0474 -1.66851,0.0766 -2.50361,0.0766 -4.33333,0 -8.66667,0 -13,0 -1,0 -2,0 -3,0 -0.50207,0 -1.00373,0.0245 -1.50423,0.0643 -0.50049,0.0397 -1.0152,0.0811 -1.49577,-0.0643 -0.35833,-0.10837 -0.67595,-0.31784 -0.99175,-0.51888 -0.3158,-0.20103 -0.64291,-0.39942 -1.00825,-0.48112 -0.32605,-0.0729 -0.6649,-0.0519 -0.99842,-0.0321 -0.33352,0.0198 -0.66747,0.0321 -1.00158,0.0321 -2,0 -4,0 -6,0 -5,0 -10,0 -15,0 -2,0 -4,0 -6,0 -0.1721,0 -0.34311,0.0232 -0.51119,0.0602 -0.084,0.0185 -0.16931,0.0362 -0.2553,0.0331 -0.043,-0.002 -0.086,-0.009 -0.12635,-0.0235 -0.0403,-0.015 -0.0779,-0.0382 -0.10716,-0.0698 -0.0299,-0.0323 -0.0504,-0.0728 -0.0617,-0.11536 -0.0113,-0.0426 -0.0136,-0.0872 -0.01,-0.13112 0.008,-0.0877 0.0398,-0.1713 0.0714,-0.25352 0.0316,-0.0822 0.0636,-0.16577 0.0714,-0.25352 0.004,-0.0439 0.002,-0.0885 -0.01,-0.13112 -0.0113,-0.0426 -0.0318,-0.083 -0.0617,-0.11536 -0.0292,-0.0316 -0.0668,-0.0548 -0.10716,-0.0698 -0.0403,-0.015 -0.0833,-0.022 -0.12635,-0.0235 -0.086,-0.003 -0.17126,0.0146 -0.2553,0.0331 -0.16808,0.037 -0.33909,0.0602 -0.51119,0.0602 l -1,0 c -2.37145,0 -4.77636,0.17586 -7,1"
       id="path5184"
       inkscape:path-effect="#path-effect5186"
       inkscape:original-d="m 520,580.36218 c -3,0 -6,0 -9,0 -8.66667,0 -17.33333,0 -26,0 -3.66667,0 -7.33333,0 -11,0 -0.52292,0 -3.73706,-0.13147 -4,0 -0.42164,0.21082 -0.55279,0.85093 -1,1 -0.48583,0.16195 -5.97905,0 -7,0 -0.66667,0 -1.36754,-0.21082 -2,0 -0.44721,0.14907 -0.57836,0.78918 -1,1 -0.29814,0.14907 -0.70186,-0.14907 -1,0 -0.42164,0.21082 -0.54267,0.88567 -1,1 -0.97014,0.24254 -2,0 -3,0 -2,0 -4,0 -6,0 -0.66667,0 -1.36754,-0.21082 -2,0 -0.70711,0.2357 -1.2769,0.81923 -2,1 -0.78662,0.19666 -4.96008,0 -6,0 -3,0 -6,0 -9,0 -0.66667,0 -1.33333,0 -2,0 -0.66667,0 -1.35324,-0.16169 -2,0 -0.7231,0.18078 -1.2769,0.81923 -2,1 -0.64676,0.16169 -1.33333,0 -2,0 -1.33333,0 -2.66667,0 -4,0 -2.66667,0 -5.33333,0 -8,0 -0.93882,0 -4.42701,-0.19099 -5,0 -0.44721,0.14907 -0.55279,0.85093 -1,1 -0.63246,0.21082 -1.33333,0 -2,0 -1.33333,0 -2.66667,0 -4,0 -2.33333,0 -4.66667,0 -7,0 -0.66667,0 -1.33333,0 -2,0 -0.33333,0 -0.70186,-0.14907 -1,0 -0.42164,0.21082 -0.55279,0.85093 -1,1 -0.63246,0.21082 -1.36754,-0.21082 -2,0 -0.44721,0.14907 -0.57836,0.78918 -1,1 -0.29814,0.14907 -0.68377,-0.10541 -1,0 -0.70711,0.2357 -1.37983,0.58655 -2,1 -0.39223,0.26149 -0.55279,0.85093 -1,1 -0.63246,0.21082 -1.4453,-0.3698 -2,0 -0.62017,0.41345 -0.47295,1.47296 -1,2 -0.52705,0.52705 -1.40372,0.55279 -2,1 -1.24482,0.93362 -3.85901,3.85901 -5,5 -0.33333,0.33334 -0.55279,0.85093 -1,1 -5.66667,0 -0.33333,-0.66666 -2,1 -0.2357,0.2357 -0.7643,-0.2357 -1,0 -0.20444,0.20444 0.19825,2.60351 0,3 -0.42164,0.84328 -1.57836,1.15673 -2,2 -0.15217,0.30434 0,2.54964 0,3 0,2.33334 0,4.66667 0,7 0,1.15753 -0.2232,4.10722 0,5 0.18078,0.7231 0.7643,1.2929 1,2 0.84166,2.52499 -2.03108,-1.04144 1,3 0.56569,0.75425 1.57836,1.15673 2,2 0.29814,0.59629 -0.343,1.42834 0,2 0.72761,1.21268 2.17801,1.84921 3,3 0.86646,1.21304 1.04567,2.85481 2,4 0.76941,0.92329 2,1.33334 3,2 1.60476,1.06984 3.86007,2.2901 5,4 0.29031,0.43547 -0.26393,2.47215 0,3 0.42164,0.84328 1.57836,1.15673 2,2 0.29814,0.59629 -0.29814,1.40372 0,2 0.42164,0.84328 1.57836,1.15673 2,2 0.14907,0.29815 -0.2357,0.7643 0,1 0.2357,0.2357 0.7643,-0.2357 1,0 0.2357,0.2357 -0.2357,0.7643 0,1 0.2357,0.2357 0.7643,-0.2357 1,0 0.2357,0.2357 -0.14907,0.70186 0,1 0.21082,0.42164 0.78918,0.57837 1,1 0.14907,0.29815 -0.2357,0.7643 0,1 0.2357,0.2357 0.70186,-0.14907 1,0 4.16176,2.08088 -1.06904,-0.069 1,2 0.2357,0.2357 0.70186,-0.14907 1,0 1.2,0.6 1.8,2.4 3,3 0.29814,0.14907 0.70186,-0.14907 1,0 0.42164,0.21082 0.60777,0.73851 1,1 0.62017,0.41345 1.37983,0.58655 2,1 0.39223,0.26149 0.55279,0.85093 1,1 0.63246,0.21082 1.38102,-0.24759 2,0 1.11589,0.44636 1.96942,1.38166 3,2 0.63914,0.38349 1.37983,0.58655 2,1 0.39223,0.26149 0.57836,0.78918 1,1 0.94281,0.47141 2.09612,0.45768 3,1 0.80845,0.48507 1.15673,1.57837 2,2 0.59628,0.29815 1.40372,-0.29814 2,0 1.2,0.6 1.8,2.4 3,3 6.96383,2.32128 -0.49071,-0.66047 5,3 0.27735,0.1849 0.67662,-0.0808 1,0 1.02262,0.25566 2.09612,0.45768 3,1 0.80845,0.48507 1.15673,1.57837 2,2 0.59628,0.29815 1.36754,-0.21082 2,0 0.44721,0.14907 0.60777,0.73851 1,1 0.18627,0.12418 3.93592,1.93592 4,2 0.52705,0.52705 0.47295,1.47296 1,2 0.2357,0.2357 0.7643,-0.2357 1,0 0.2357,0.2357 -0.2357,0.7643 0,1 0.52705,0.52705 1.37983,0.58655 2,1 0.39223,0.26149 0.60777,0.73851 1,1 0.62017,0.41345 1.40372,0.55279 2,1 0.75425,0.56569 1.24575,1.43432 2,2 0.59628,0.44722 1.33333,0.66667 2,1 0.66667,0.66667 1.26379,1.41103 2,2 0.93849,0.75079 2.06151,1.24921 3,2 0.73621,0.58897 1.24575,1.43432 2,2 0.59628,0.44722 1.41797,0.53438 2,1 1.10432,0.88345 1.86863,2.15147 3,3 0.26667,0.2 0.7643,-0.2357 1,0 0.52705,0.52705 0.58655,1.37983 1,2 0.26149,0.39223 0.73851,0.60777 1,1 0.41345,0.62018 0.47295,1.47296 1,2 0.2357,0.2357 0.7643,-0.2357 1,0 9.5e-4,9.6e-4 -0.002,2.99547 0,3 0.29814,0.89443 1.57836,1.15673 2,2 0.14907,0.29815 -0.14907,0.70186 0,1 2.08088,4.16176 -0.069,-1.06903 2,1 0.52705,0.52705 0.47295,1.47296 1,2 0.2357,0.2357 0.72265,-0.1849 1,0 1.75032,1.16688 3.2251,3.93506 5,5 0.90388,0.54233 2.12294,0.4153 3,1 1.1767,0.78447 1.80075,2.25047 3,3 1.5222,0.95138 3.43084,1.12825 5,2 1.45693,0.80941 2.50929,2.25465 4,3 3.49172,1.74586 3.43854,0.0789 6,2 0.75425,0.56569 1.15673,1.57837 2,2 0.59628,0.29815 1.35324,-0.16169 2,0 0.7231,0.18078 1.33333,0.66667 2,1 1.63215,0.81608 3.14645,1.69108 5,2 0.98639,0.1644 2,0 3,0 2,0 4.00821,-0.18107 6,0 1.69269,0.15388 3.30731,0.84612 5,1 2.98768,0.27161 6,0 9,0 1,0 2.01942,-0.19611 3,0 1.46176,0.29236 2.58579,1.5286 4,2 0.63246,0.21082 1.5286,-0.4714 2,0 0.2357,0.2357 -0.2357,0.7643 0,1 0.2357,0.2357 0.66667,0 1,0 1.33333,0 2.66667,0 4,0 5.33333,0 10.66667,0 16,0 7.66667,0 15.33333,0 23,0 2.33333,0 4.68094,0.25768 7,0 3.70399,-0.41155 7.34559,-1.26912 11,-2 4.67993,-0.93598 9.40415,-1.71316 14,-3 3.75707,-1.05198 7.33899,-2.6512 11,-4 2.6724,-0.98457 5.33333,-2 8,-3 2.66667,-1 5.38227,-1.87811 8,-3 2.05527,-0.88083 3.93594,-2.13997 6,-3 1.94602,-0.81084 4,-1.33333 6,-2 4,-1.33333 8.03748,-2.55908 12,-4 1.68698,-0.61344 3.33333,-1.33333 5,-2 1.66667,-0.66666 3.39445,-1.19722 5,-2 1.07497,-0.53748 1.89533,-1.52657 3,-2 1.26324,-0.54139 2.74409,-0.44181 4,-1 5.95205,-2.64535 3.81527,-2.41308 8,-6 3.09928,-2.65652 6.0387,-4.0387 9,-7 1.17851,-1.17851 1.90249,-2.7457 3,-4 1.24169,-1.41907 2.66667,-2.66666 4,-4 1,-1 2.21554,-1.8233 3,-3 0.58471,-0.87706 0.5286,-2.05719 1,-3 0.21082,-0.42163 0.78918,-0.57836 1,-1 0.14907,-0.29814 0,-0.66666 0,-1 0,-0.33333 0,-0.66666 0,-1 0,-2 -0.16609,-4.00691 0,-6 1.48826,-17.85908 0.6611,5.42236 2,-16 0.14555,-2.32879 0,-4.66666 0,-7 0,-3.66666 0,-7.33333 0,-11 0,-1 0,-2 0,-3 0,-1 0.37139,-2.07152 0,-3 -1.3558,-3.3895 -1.36828,-1.59207 -3,-2 -1.02262,-0.25565 -1.96638,-0.79327 -3,-1 -0.65372,-0.13074 -1.35324,0.16169 -2,0 -0.7231,-0.18077 -1.2769,-0.81922 -2,-1 -0.64676,-0.16169 -1.40372,0.29815 -2,0 -0.84327,-0.42163 -1.33333,-1.33333 -2,-2 -0.33333,-0.33333 -0.66667,-0.66666 -1,-1 -0.33333,-0.33333 -0.78918,-0.57836 -1,-1 -0.29814,-0.59628 0.4714,-1.52859 0,-2 -0.67933,-0.67932 -1.98876,1.02248 -3,-1 -0.14907,-0.29814 0,-0.66666 0,-1 -0.33333,-0.66666 -0.58655,-1.37982 -1,-2 -1.21982,-1.82973 -1.27494,-0.0998 -2,-3 -0.16169,-0.64676 0.16169,-1.35324 0,-2 -1.20724,-4.82894 -0.47522,0.0496 -2,-3 -0.4714,-0.94281 -0.79328,-1.96637 -1,-3 -0.61852,-3.09258 0.98967,-1.0155 -1,-4 -0.26149,-0.39223 -0.57836,-0.78918 -1,-1 -0.31867,-0.15933 -4.10628,0 -5,0 -0.33333,0 -0.7643,0.2357 -1,0 -0.2357,-0.2357 0.2357,-0.7643 0,-1 -0.52705,-0.52704 -1.40372,-0.55278 -2,-1 -0.75425,-0.56568 -1.21554,-1.47702 -2,-2 -0.27735,-0.1849 -0.7643,0.2357 -1,0 -0.52705,-0.52704 -0.47295,-1.47295 -1,-2 -0.4714,-0.4714 -1.36754,0.21082 -2,0 -0.70711,-0.2357 -1.47295,-0.47295 -2,-1 -0.2357,-0.2357 0.2357,-0.7643 0,-1 -0.2357,-0.2357 -0.72265,0.1849 -1,0 -4.55228,-4.55228 0.41421,-0.52859 -4,-2 -0.44721,-0.14907 -0.60777,-0.73851 -1,-1 -5.05181,-3.36787 -0.0232,-0.008 -3,-1 -7.24342,-2.41447 1.57661,0.28831 -3,-2 -0.29814,-0.14907 -0.66667,0 -1,0 -0.66667,0 -1.34628,0.13075 -2,0 -1.03362,-0.20672 -2.0213,-0.60852 -3,-1 -0.69205,-0.27682 -1.37983,-0.58655 -2,-1 -0.39223,-0.26149 -0.55279,-0.85093 -1,-1 -1.06261,-0.3542 -2.93739,0.35421 -4,0 -0.70711,-0.2357 -1.29289,-0.7643 -2,-1 -0.31623,-0.10541 -0.70186,0.14907 -1,0 -0.42164,-0.21082 -0.55279,-0.85093 -1,-1 -0.94868,-0.31623 -2,0 -3,0 -3,0 -6,0 -9,0 -1.33333,0 -2.66667,0 -4,0 -0.66667,0 -1.34628,0.13075 -2,0 -1.03362,-0.20672 -1.97738,-0.74434 -3,-1 -1.23337,-0.30834 -3.71032,0.25794 -5,0 -1.03362,-0.20672 -1.96638,-0.79327 -3,-1 -1.30744,-0.26149 -2.66667,0 -4,0 -2.66667,0 -5.33333,0 -8,0 -1,0 -2.01361,0.1644 -3,0 -1.03975,-0.17329 -1.96638,-0.79327 -3,-1 -1.6343,-0.32686 -3.35601,0.274 -5,0 -1.03975,-0.17329 -1.96025,-0.82671 -3,-1 -1.64399,-0.274 -3.33333,0 -5,0 -4.33333,0 -8.66667,0 -13,0 -1,0 -2,0 -3,0 -1,0 -2.01942,0.19612 -3,0 -0.73088,-0.14617 -1.2769,-0.81922 -2,-1 -0.64676,-0.16169 -1.33333,0 -2,0 -2,0 -4,0 -6,0 -5,0 -10,0 -15,0 -2,0 -4,0 -6,0 -0.33333,0 -0.7643,0.2357 -1,0 -0.2357,-0.2357 0.2357,-0.7643 0,-1 -0.2357,-0.2357 -0.66667,0 -1,0 -0.33333,0 -0.66667,0 -1,0 -2.65684,0 -3.82195,0.36439 -7,1 z"
       inkscape:connector-curvature="0" />
  </g>
</svg>
